<svg width="797" height="594" viewBox="0 0 797 594" fill="none" xmlns="http://www.w3.org/2000/svg">
<path d="M590.122 215.548H298.283C293.644 215.542 289.195 213.697 285.915 210.416C282.634 207.135 280.788 202.687 280.783 198.048V25.8938C280.787 22.4238 282.167 19.0971 284.621 16.6434C287.074 14.1897 290.401 12.8094 293.871 12.8054H594.324C597.85 12.8095 601.23 14.2117 603.723 16.7046C606.215 19.1975 607.618 22.5774 607.622 26.1028V198.048C607.616 202.687 605.771 207.135 602.49 210.416C599.209 213.697 594.761 215.542 590.122 215.548V215.548Z" fill="white"/>
<path d="M590.122 215.548H298.283C293.644 215.542 289.195 213.697 285.915 210.416C282.634 207.135 280.788 202.687 280.783 198.048V25.8938C280.787 22.4238 282.167 19.0971 284.621 16.6434C287.074 14.1897 290.401 12.8094 293.871 12.8054H594.324C597.85 12.8095 601.23 14.2117 603.723 16.7046C606.215 19.1975 607.618 22.5774 607.622 26.1028V198.048C607.616 202.687 605.771 207.135 602.49 210.416C599.209 213.697 594.761 215.542 590.122 215.548V215.548ZM293.871 14.8054C290.931 14.8088 288.113 15.9781 286.034 18.0569C283.956 20.1356 282.786 22.9541 282.783 25.8938V198.048C282.788 202.157 284.422 206.097 287.328 209.003C290.234 211.908 294.174 213.543 298.283 213.548H590.122C594.231 213.543 598.171 211.908 601.077 209.003C603.982 206.097 605.617 202.157 605.622 198.048V26.1028C605.618 23.1076 604.427 20.2361 602.309 18.1181C600.191 16.0002 597.32 14.8088 594.324 14.8054H293.871Z" fill="#3F3D56"/>
<path d="M314.283 198.048H574.122C578.365 198.048 582.435 196.362 585.435 193.362C588.436 190.361 590.122 186.291 590.122 182.048V56.5C590.122 52.2565 588.436 48.1869 585.435 45.1863C582.435 42.1857 578.365 40.5 574.122 40.5H314.283C310.04 40.5 305.97 42.1857 302.969 45.1863C299.969 48.1869 298.283 52.2565 298.283 56.5V182.048C298.283 186.291 299.969 190.361 302.969 193.362C305.97 196.362 310.04 198.048 314.283 198.048Z" fill="#F2F2F2"/>
<path d="M608.059 24.9502H280.059V16.5498C280.09 12.1367 281.869 7.91591 285.008 4.81333C288.147 1.71075 292.388 -0.0202459 296.801 5.48628e-05H591.317C595.73 -0.020267 599.971 1.71072 603.11 4.8133C606.249 7.91589 608.028 12.1367 608.059 16.5498V24.9502Z" fill="#1F364D"/>
<path d="M311.647 16.7834C314.013 16.7834 315.93 14.8656 315.93 12.5C315.93 10.1343 314.013 8.21655 311.647 8.21655C309.281 8.21655 307.364 10.1343 307.364 12.5C307.364 14.8656 309.281 16.7834 311.647 16.7834Z" fill="white"/>
<path d="M327.906 16.7834C330.271 16.7834 332.189 14.8656 332.189 12.5C332.189 10.1343 330.271 8.21655 327.906 8.21655C325.54 8.21655 323.622 10.1343 323.622 12.5C323.622 14.8656 325.54 16.7834 327.906 16.7834Z" fill="white"/>
<path d="M344.165 16.7834C346.53 16.7834 348.448 14.8656 348.448 12.5C348.448 10.1343 346.53 8.21655 344.165 8.21655C341.799 8.21655 339.881 10.1343 339.881 12.5C339.881 14.8656 341.799 16.7834 344.165 16.7834Z" fill="white"/>
<path d="M360.533 152.274C354.006 152.274 347.626 150.339 342.199 146.712C336.772 143.086 332.543 137.932 330.045 131.903C327.547 125.873 326.894 119.237 328.167 112.836C329.44 106.435 332.583 100.555 337.199 95.9394C341.814 91.3243 347.694 88.1813 354.095 86.908C360.496 85.6347 367.132 86.2882 373.162 88.7859C379.192 91.2836 384.346 95.5133 387.972 100.94C391.598 106.367 393.533 112.747 393.533 119.274C393.523 128.023 390.043 136.411 383.857 142.598C377.67 148.784 369.282 152.264 360.533 152.274V152.274Z" fill="#1F364D"/>
<path d="M552.872 146.274H425.154C423.091 146.301 421.094 145.549 419.562 144.167C418.03 142.785 417.075 140.876 416.89 138.822C416.816 137.728 416.968 136.63 417.335 135.597C417.703 134.564 418.279 133.618 419.027 132.817C419.775 132.015 420.68 131.376 421.685 130.939C422.691 130.501 423.775 130.275 424.872 130.274H552.555C554.628 130.243 556.636 130.998 558.175 132.387C559.715 133.775 560.672 135.694 560.856 137.76C560.925 138.851 560.769 139.945 560.399 140.974C560.03 142.003 559.453 142.946 558.705 143.743C557.957 144.541 557.053 145.177 556.05 145.612C555.047 146.047 553.965 146.272 552.872 146.274Z" fill="#3F3D56"/>
<path d="M485.872 112.274H425.154C423.091 112.301 421.094 111.549 419.562 110.167C418.03 108.786 417.075 106.877 416.89 104.822C416.816 103.728 416.968 102.63 417.335 101.598C417.703 100.565 418.279 99.6181 419.027 98.8167C419.775 98.0154 420.68 97.3762 421.685 96.9388C422.691 96.5014 423.775 96.275 424.872 96.2738H485.555C487.628 96.2434 489.636 96.9981 491.175 98.3866C492.715 99.7751 493.672 101.695 493.856 103.76C493.925 104.851 493.769 105.945 493.399 106.974C493.03 108.003 492.453 108.946 491.705 109.743C490.957 110.541 490.053 111.177 489.05 111.612C488.047 112.047 486.965 112.273 485.872 112.274Z" fill="#3F3D56"/>
<path d="M760.096 422.401C760.587 421.016 760.769 419.539 760.629 418.076C760.488 416.613 760.028 415.198 759.281 413.932C758.535 412.665 757.52 411.578 756.307 410.746C755.095 409.915 753.715 409.359 752.265 409.118L746.236 373.896L732.68 386.588L740.484 418.09C740.242 420.553 740.911 423.02 742.365 425.022C743.819 427.025 745.958 428.425 748.375 428.956C750.792 429.488 753.321 429.114 755.481 427.906C757.641 426.698 759.283 424.739 760.096 422.401V422.401Z" fill="#FFB8B8"/>
<path d="M751.089 405.549L737.781 409.042C737.148 409.205 736.476 409.115 735.908 408.79C735.34 408.466 734.921 407.933 734.741 407.304L710.826 322.573L703.601 300.958C702.905 298.875 702.747 296.65 703.142 294.49C703.537 292.33 704.471 290.305 705.859 288.603C707.247 286.901 709.043 285.578 711.08 284.756C713.117 283.935 715.328 283.643 717.508 283.906C720.032 284.209 722.411 285.245 724.353 286.885C726.294 288.526 727.712 290.699 728.433 293.136L747.542 357.729L752.937 402.835C752.995 403.336 752.901 403.844 752.667 404.291C752.432 404.738 752.068 405.104 751.622 405.342C751.453 405.431 751.274 405.501 751.089 405.549V405.549Z" fill="#CCCCCC"/>
<path d="M702.453 269.613C716.018 269.613 727.014 258.617 727.014 245.052C727.014 231.488 716.018 220.491 702.453 220.491C688.889 220.491 677.892 231.488 677.892 245.052C677.892 258.617 688.889 269.613 702.453 269.613Z" fill="#FFB8B8"/>
<path d="M630.137 581.049L618.386 577.553L626.28 530.565L643.623 535.725L630.137 581.049Z" fill="#FFB8B8"/>
<path d="M629.745 593.331L591.856 582.058L591.998 581.579C592.574 579.642 593.526 577.838 594.8 576.269C596.073 574.7 597.643 573.398 599.42 572.436C601.197 571.474 603.146 570.871 605.156 570.662C607.165 570.453 609.197 570.642 611.133 571.219L611.134 571.219L634.275 578.104L629.745 593.331Z" fill="#2F2E41"/>
<path d="M758.875 580.447H746.615L740.783 533.159L752.877 533.16L758.875 580.447Z" fill="#FFB8B8"/>
<path d="M762.002 592.331L722.471 592.33V591.83C722.471 589.809 722.869 587.809 723.642 585.942C724.416 584.075 725.549 582.379 726.978 580.95C728.406 579.521 730.103 578.388 731.969 577.615C733.836 576.842 735.837 576.444 737.858 576.444H737.859L762.002 576.445L762.002 592.331Z" fill="#2F2E41"/>
<path d="M634.657 567.147H622.348C621.688 567.147 621.036 567.001 620.439 566.721C619.841 566.441 619.313 566.033 618.89 565.526C618.468 565.02 618.162 564.426 617.995 563.788C617.828 563.149 617.802 562.482 617.922 561.833C610.072 558.341 652.338 355.648 662.324 359.577L662.653 359.104L712.94 363.207C735.464 408.287 749.722 482.88 763.063 560.751C763.227 561.398 763.245 562.072 763.117 562.726C762.988 563.381 762.715 563.998 762.319 564.534C761.922 565.07 761.412 565.512 760.824 565.826C760.236 566.141 759.585 566.321 758.919 566.353L745.089 567.024C744.153 567.072 743.225 566.826 742.436 566.32C741.648 565.813 741.038 565.072 740.692 564.201L687.703 431.733C687.598 431.443 687.403 431.195 687.146 431.025C686.889 430.856 686.584 430.773 686.276 430.79C685.97 430.793 685.672 430.892 685.424 431.072C685.176 431.253 684.991 431.506 684.894 431.797L638.908 564.124C638.601 565.007 638.026 565.772 637.265 566.313C636.503 566.855 635.592 567.146 634.657 567.147V567.147Z" fill="#2F2E41"/>
<path d="M713.993 367.174L713.609 367.146L660.068 363.105L669.459 303.375C670.49 296.708 673.649 290.553 678.465 285.828C683.281 281.104 689.495 278.063 696.181 277.16C696.593 277.103 697.007 277.046 697.424 276.991C702.676 276.3 708.018 276.971 712.936 278.94C717.854 280.908 722.184 284.108 725.51 288.232C728.914 292.379 731.195 297.333 732.132 302.616C733.07 307.899 732.633 313.335 730.864 318.401L713.993 367.174Z" fill="#CCCCCC"/>
<path d="M750.146 273.147C733.258 280.872 710.343 279.49 684.146 273.147C687.771 263.217 690.596 253.626 687.392 246.586C686.098 243.928 685.368 241.032 685.247 238.078C685.126 235.124 685.616 232.178 686.689 229.423C689.2 223.416 693.432 218.286 698.851 214.679C704.27 211.071 710.636 209.146 717.146 209.147V209.147C725.898 209.147 734.292 212.624 740.481 218.812C746.669 225.001 750.146 233.395 750.146 242.147V273.147Z" fill="#2F2E41"/>
<path d="M693.146 211.392H714.146V237.217H670.146V234.392C670.146 228.292 672.569 222.442 676.883 218.129C681.196 213.816 687.046 211.392 693.146 211.392V211.392Z" fill="#2F2E41"/>
<path d="M658.911 427.957C659.994 426.963 660.847 425.744 661.408 424.385C661.97 423.027 662.226 421.562 662.16 420.093C662.094 418.624 661.707 417.188 661.026 415.885C660.345 414.583 659.386 413.445 658.218 412.553L669.398 378.612L651.475 383.472L643.606 414.958C642.238 417.02 641.673 419.512 642.019 421.963C642.365 424.414 643.598 426.652 645.485 428.255C647.371 429.857 649.78 430.712 652.254 430.657C654.729 430.602 657.097 429.641 658.911 427.957V427.957Z" fill="#FFB8B8"/>
<path d="M658.851 408.849L645.459 405.698C644.822 405.545 644.271 405.151 643.922 404.598C643.572 404.045 643.452 403.378 643.587 402.738L662.168 316.68L665.915 294.2C666.276 292.033 667.179 289.994 668.541 288.27C669.902 286.547 671.677 285.196 673.7 284.343C675.724 283.49 677.931 283.163 680.115 283.392C682.299 283.621 684.389 284.399 686.192 285.653V285.653C688.279 287.103 689.896 289.133 690.842 291.492C691.788 293.851 692.023 296.435 691.517 298.926L678.128 364.943L661.756 407.317C661.572 407.787 661.251 408.192 660.835 408.477C660.418 408.762 659.925 408.915 659.42 408.915C659.228 408.915 659.038 408.893 658.851 408.849V408.849Z" fill="#CCCCCC"/>
<path d="M796 593.673H415C414.735 593.673 414.48 593.568 414.293 593.38C414.105 593.193 414 592.938 414 592.673C414 592.408 414.105 592.153 414.293 591.966C414.48 591.778 414.735 591.673 415 591.673H796C796.265 591.673 796.52 591.778 796.707 591.966C796.895 592.153 797 592.408 797 592.673C797 592.938 796.895 593.193 796.707 593.38C796.52 593.568 796.265 593.673 796 593.673Z" fill="#CCCCCC"/>
<path d="M135.034 354.944C134.498 355.081 133.974 355.261 133.466 355.48L91.7917 328.596L92.3665 316.562L74.3181 313.321L71.23 334.526C70.9805 336.239 71.2935 337.987 72.1219 339.507C72.9503 341.027 74.2495 342.238 75.8243 342.957L127.151 366.387C127.406 368.503 128.3 370.492 129.713 372.088C131.126 373.684 132.991 374.812 135.061 375.322C137.131 375.832 139.307 375.699 141.3 374.942C143.292 374.186 145.007 372.84 146.217 371.085C147.426 369.329 148.072 367.247 148.069 365.115C148.067 362.984 147.415 360.903 146.201 359.151C144.987 357.399 143.268 356.058 141.273 355.306C139.279 354.555 137.102 354.428 135.034 354.944H135.034Z" fill="#FFB8B8"/>
<path d="M90.0914 327.855L67.7415 323.729C67.1056 323.612 66.5024 323.359 65.9732 322.987C65.4439 322.616 65.0009 322.135 64.6743 321.576C64.3478 321.018 64.1454 320.396 64.0809 319.753C64.0164 319.109 64.0914 318.46 64.3007 317.848L71.6351 296.409C72.2538 293.158 74.1363 290.286 76.8699 288.421C79.6034 286.557 82.9648 285.852 86.217 286.462C89.4692 287.073 92.3466 288.948 94.2183 291.677C96.0899 294.405 96.803 297.765 96.2011 301.019L95.4054 323.59C95.3824 324.236 95.2205 324.87 94.9305 325.448C94.6405 326.026 94.2294 326.535 93.7251 326.939C93.2208 327.344 92.6351 327.636 92.0081 327.794C91.381 327.952 90.7273 327.973 90.0914 327.855V327.855Z" fill="#3F3D56"/>
<path d="M525.331 265.693H144.331C141.049 265.69 137.823 266.541 134.97 268.163C134.287 268.551 133.629 268.982 133.001 269.453C130.621 271.218 128.687 273.515 127.355 276.162C126.023 278.809 125.33 281.73 125.331 284.693V482.693C125.335 487.731 127.338 492.561 130.901 496.123C134.463 499.686 139.293 501.689 144.331 501.693H525.331C530.368 501.689 535.199 499.685 538.761 496.123C542.323 492.561 544.326 487.731 544.331 482.693V284.693C544.326 279.656 542.323 274.825 538.761 271.263C535.199 267.701 530.368 265.698 525.331 265.693V265.693Z" fill="white"/>
<path d="M525.331 265.693H144.331C141.049 265.69 137.823 266.541 134.97 268.163C134.287 268.551 133.629 268.982 133.001 269.453C130.621 271.218 128.687 273.515 127.355 276.162C126.023 278.809 125.33 281.73 125.331 284.693V482.693C125.335 487.731 127.338 492.561 130.901 496.123C134.463 499.686 139.293 501.689 144.331 501.693H525.331C530.368 501.689 535.199 499.685 538.761 496.123C542.323 492.561 544.326 487.731 544.331 482.693V284.693C544.326 279.656 542.323 274.825 538.761 271.263C535.199 267.701 530.368 265.698 525.331 265.693V265.693ZM542.331 482.693C542.324 487.2 540.531 491.52 537.344 494.707C534.158 497.894 529.837 499.687 525.331 499.693H144.331C139.824 499.687 135.504 497.894 132.317 494.707C129.13 491.52 127.337 487.2 127.331 482.693V284.693C127.345 281.101 128.491 277.604 130.605 274.699C132.72 271.795 135.696 269.63 139.111 268.513C139.251 268.473 139.381 268.423 139.521 268.383C141.083 267.924 142.703 267.692 144.331 267.693H525.331C529.837 267.7 534.158 269.493 537.344 272.68C540.531 275.866 542.324 280.187 542.331 284.693V482.693Z" fill="#3F3D56"/>
<path d="M334.414 383.609C332.897 383.608 331.404 383.224 330.075 382.49L131.032 272.938C130.8 272.81 130.628 272.595 130.554 272.34C130.48 272.085 130.51 271.812 130.638 271.58C130.766 271.347 130.981 271.175 131.236 271.101C131.491 271.027 131.764 271.058 131.996 271.186L331.04 380.738C332.055 381.299 333.193 381.598 334.353 381.608C335.512 381.618 336.656 381.34 337.681 380.797L540.001 274.068C540.117 274.006 540.244 273.968 540.375 273.956C540.506 273.943 540.638 273.957 540.763 273.995C540.889 274.034 541.006 274.097 541.107 274.181C541.208 274.265 541.292 274.368 541.353 274.484C541.415 274.601 541.452 274.728 541.465 274.859C541.477 274.99 541.463 275.122 541.424 275.247C541.385 275.373 541.322 275.49 541.237 275.591C541.153 275.692 541.05 275.775 540.934 275.836L338.614 382.566C337.32 383.25 335.878 383.608 334.414 383.609V383.609Z" fill="#3F3D56"/>
<path d="M188.897 451.693H160.897C158.776 451.693 156.741 450.85 155.241 449.35C153.74 447.85 152.897 445.815 152.897 443.693C152.897 441.571 153.74 439.536 155.241 438.036C156.741 436.536 158.776 435.693 160.897 435.693H188.897C191.019 435.693 193.054 436.536 194.554 438.036C196.055 439.536 196.897 441.571 196.897 443.693C196.897 445.815 196.055 447.85 194.554 449.35C193.054 450.85 191.019 451.693 188.897 451.693Z" fill="#3F3D56"/>
<path d="M221.897 478.693H160.897C158.776 478.693 156.741 477.85 155.241 476.35C153.74 474.85 152.897 472.815 152.897 470.693C152.897 468.571 153.74 466.536 155.241 465.036C156.741 463.536 158.776 462.693 160.897 462.693H221.897C224.019 462.693 226.054 463.536 227.554 465.036C229.055 466.536 229.897 468.571 229.897 470.693C229.897 472.815 229.055 474.85 227.554 476.35C226.054 477.85 224.019 478.693 221.897 478.693Z" fill="#3F3D56"/>
<path d="M334.334 415.693C352.007 415.693 366.334 401.366 366.334 383.693C366.334 366.02 352.007 351.693 334.334 351.693C316.661 351.693 302.334 366.02 302.334 383.693C302.334 401.366 316.661 415.693 334.334 415.693Z" fill="#1F364D"/>
<path d="M189.277 284.519L330.301 343.357C330.786 343.559 331.333 343.562 331.821 343.365L477.213 284.527C477.643 284.353 477.999 284.035 478.221 283.627C478.442 283.219 478.514 282.746 478.426 282.291C478.337 281.835 478.093 281.425 477.735 281.13C477.376 280.835 476.927 280.673 476.463 280.673H190.047C189.585 280.673 189.137 280.833 188.779 281.126C188.422 281.419 188.177 281.827 188.086 282.28C187.995 282.734 188.064 283.204 188.281 283.612C188.498 284.021 188.85 284.341 189.277 284.519Z" fill="#F2F2F2"/>
<path d="M167.809 269.706C167.686 270.245 167.606 270.794 167.569 271.346L124.612 296.128L114.17 290.117L103.039 304.689L120.49 317.127C121.899 318.132 123.597 318.652 125.328 318.61C127.058 318.568 128.729 317.965 130.088 316.893L174.384 281.947C176.383 282.687 178.56 282.801 180.626 282.274C182.691 281.746 184.547 280.602 185.946 278.994C187.346 277.386 188.223 275.39 188.46 273.272C188.698 271.154 188.284 269.013 187.276 267.135C186.267 265.258 184.71 263.731 182.813 262.76C180.916 261.788 178.768 261.417 176.654 261.696C174.541 261.975 172.563 262.891 170.983 264.322C169.402 265.753 168.295 267.63 167.809 269.706V269.706Z" fill="#FFB8B8"/>
<path d="M123.176 297.302L109.292 315.296C108.897 315.808 108.396 316.228 107.824 316.529C107.252 316.83 106.621 317.005 105.975 317.04C105.33 317.075 104.684 316.971 104.082 316.734C103.48 316.498 102.937 316.134 102.488 315.668L86.7707 299.347C84.1631 297.311 82.4692 294.324 82.0605 291.041C81.6517 287.758 82.5613 284.447 84.59 281.834C86.6187 279.22 89.6008 277.518 92.8826 277.1C96.1645 276.682 99.4782 277.582 102.097 279.603L121.81 290.626C122.375 290.942 122.864 291.375 123.246 291.897C123.627 292.419 123.892 293.018 124.022 293.651C124.151 294.285 124.143 294.939 123.997 295.569C123.851 296.199 123.571 296.79 123.176 297.302H123.176Z" fill="#3F3D56"/>
<path d="M66.3207 254.338C79.8854 254.338 90.8817 243.341 90.8817 229.777C90.8817 216.212 79.8854 205.216 66.3207 205.216C52.756 205.216 41.7597 216.212 41.7597 229.777C41.7597 243.341 52.756 254.338 66.3207 254.338Z" fill="#FFB8B8"/>
<path d="M89.505 581.447H101.765L107.597 534.159L89.503 534.16L89.505 581.447Z" fill="#FFB8B8"/>
<path d="M86.3779 577.445L110.522 577.444H110.523C112.543 577.444 114.544 577.841 116.411 578.615C118.278 579.388 119.974 580.521 121.403 581.95C122.831 583.379 123.965 585.075 124.738 586.942C125.511 588.808 125.909 590.809 125.909 592.83V593.33L86.3787 593.331L86.3779 577.445Z" fill="#2F2E41"/>
<path d="M47.505 581.447H59.765L65.597 534.159L47.503 534.16L47.505 581.447Z" fill="#FFB8B8"/>
<path d="M44.3779 577.445L68.5217 577.444H68.5227C70.5433 577.444 72.5441 577.841 74.4109 578.615C76.2776 579.388 77.9738 580.521 79.4026 581.95C80.8314 583.379 81.9647 585.075 82.738 586.942C83.5112 588.808 83.9092 590.809 83.9092 592.83V593.33L44.3786 593.331L44.3779 577.445Z" fill="#2F2E41"/>
<path d="M85.8265 563.501L73.3212 466.747C73.3146 466.618 73.258 466.497 73.1634 466.41C73.0688 466.323 72.9437 466.276 72.8151 466.28C72.7507 466.278 72.6865 466.288 72.6265 466.312C72.5664 466.335 72.5117 466.37 72.4656 466.415C72.4196 466.46 72.3832 466.514 72.3586 466.574C72.334 466.633 72.3218 466.697 72.3226 466.761L68.7289 562.111C68.6886 563.276 68.1967 564.379 67.3574 565.187C66.518 565.995 65.3971 566.446 64.2318 566.442H49.3822C48.2055 566.449 47.0736 565.992 46.2316 565.17C45.3895 564.348 44.9053 563.227 44.8837 562.05L41.0287 403.185L107.485 403.849L109.144 563.225C109.129 563.859 108.981 564.482 108.709 565.054C108.437 565.626 108.047 566.134 107.565 566.546C107.094 566.952 106.542 567.254 105.946 567.433C105.35 567.613 104.723 567.664 104.106 567.586L89.7054 567.626C88.6846 567.485 87.7427 566.999 87.0368 566.249C86.3309 565.498 85.9037 564.528 85.8265 563.501Z" fill="#2F2E41"/>
<path d="M40.0443 407.53C39.3009 407.245 38.6463 406.769 38.1474 406.149C37.6484 405.528 37.3231 404.787 37.2045 404L36.5412 316.69C33.6042 297.251 30.1303 278.202 47.1268 268.352L48.6244 263.859C48.7876 263.373 49.0955 262.949 49.5067 262.644C49.9179 262.338 50.4127 262.166 50.9247 262.15L83.1674 261.229C83.6691 261.212 84.1642 261.347 84.5873 261.618C85.0103 261.888 85.3413 262.28 85.5365 262.743L87.9347 268.339L88.7863 268.825C96.8866 273.442 103.446 280.346 107.643 288.672C111.84 296.997 113.49 306.376 112.385 315.634L110.541 331.199L109.232 403.937C109.215 404.735 108.987 405.515 108.572 406.198C108.158 406.88 107.57 407.441 106.87 407.824C97.5028 412.953 87.1259 414.707 77.3068 414.707C60.8087 414.707 45.893 409.752 40.0443 407.53Z" fill="#3F3D56"/>
<path d="M65.521 255.248C61.8245 255.328 58.1529 254.624 54.7475 253.184C51.3421 251.744 48.2801 249.599 45.7626 246.891C43.2451 244.183 41.3292 240.973 40.1407 237.472C38.9522 233.971 38.518 230.258 38.8668 226.577C39.2155 222.896 40.3393 219.331 42.1641 216.115C43.989 212.899 46.4738 210.106 49.455 207.919C52.4363 205.732 55.8466 204.201 59.4618 203.426C63.0771 202.651 66.8154 202.65 70.4312 203.422C75.8323 200.143 82.1121 197.936 88.4059 198.497C94.6998 199.059 100.924 202.795 103.278 208.659C105.631 214.524 103.103 222.254 97.2508 224.637C93.499 226.165 89.2621 225.424 85.2582 224.808C81.2544 224.191 76.8865 223.789 73.4019 225.855C69.9173 227.921 68.3508 233.461 71.4716 236.044C73.126 237.467 74.3073 239.361 74.8583 241.472C75.4093 243.584 75.3038 245.814 74.5558 247.864C72.9873 251.92 68.7064 255.179 65.521 255.248Z" fill="#2F2E41"/>
<path d="M157 593.673H1C0.734784 593.673 0.480429 593.568 0.292892 593.38C0.105356 593.193 0 592.938 0 592.673C0 592.408 0.105356 592.153 0.292892 591.966C0.480429 591.778 0.734784 591.673 1 591.673H157C157.265 591.673 157.52 591.778 157.707 591.966C157.895 592.153 158 592.408 158 592.673C158 592.938 157.895 593.193 157.707 593.38C157.52 593.568 157.265 593.673 157 593.673Z" fill="#CCCCCC"/>
</svg>
